<?xml version="1.0" encoding="UTF-8"?>
<svg id="Layer_1" data-name="Layer 1" xmlns="http://www.w3.org/2000/svg" viewBox="0 0 942.74 1015.25">
  <path d="M223.95,216.78l204.16-75.51,131.35,54.22.25,133.14-97.36,21.83v419.11h18.06v-404.66l102.83-21.85,139.18,48.95v377.56h50.57v28.9H169.76v-28.9h54.18V216.78ZM404.55,177.04l-155.32,54.2v538.34h28.9v-511.24l32.51-16.26v527.5h32.51V233.04l28.9-12.65v549.18h32.51V177.04ZM556.25,372.14c-17.69,5.19-39.34,4.93-54.18,16.26v381.17h54.18v-397.43ZM700.71,451.61l-3.53-23.53-97.57-27.02,3.53,23.53,97.57,27.02ZM700.26,488.23l-100.65-22.16.33,21.35c13.84.88,95.94,26.93,100.78,22.03l-.47-21.22ZM700.7,545.59l-101.08-18.08c.47,7.12-2.58,18.93,3.51,23.55l95.75,19.84,1.82-25.31ZM700.24,607.48l-100.64-14.97.49,21.19c2.66,4.34,87.75,12.94,100.64,14.97l-.49-21.19ZM700.75,664.78l-101.17-7.23v21.72s101.17,7.23,101.17,7.23v-21.71ZM700.75,722.58l-101.17-3.61,1.59,21.93,99.58,7.01v-25.33Z"/>
</svg>