<?xml version="1.0" encoding="UTF-8"?>
<svg id="Layer_1" data-name="Layer 1" xmlns="http://www.w3.org/2000/svg" viewBox="0 0 738.04 738.04">
  <path d="M402.83,1.24c2.11.21,9,1.73,11.26,2.41,17.9,5.37,30.39,23.47,29.01,42.12,16.9,2.47,53.57-5.13,66.91,4.29,5.67,4,7.99,13.71,11.48,14.39l88.87.32c19.52,5.27,31.45,21.82,31.34,41.96v587.56c-1.87,26.7-17.16,41.34-43.89,42.36H138.77c-25.66-.79-41.85-15.32-43.87-40.94l-.02-436.74c-.29-14.07,16.37-18.99,20.29-4.31l-.13,438.18c.72,9.22,2.5,17.28,11.48,21.57l484.54-.45c8.82-4.93,9.87-13.27,10.51-22.55V106.76c1.01-6.98-6.3-22.21-13.73-22.21h-88.48v22.98h66.9c5.59,0,13.59,15.04,12.28,20.77l-.05,545.83c-1.8,19.81-22.06,21.18-38.13,19.39-20.56-2.28-15.05-21.55-2.87-21.55h20.86V127.63h-58.99v32.32c0,1.16-5.64,9.88-7.28,11.4-4.9,4.55-11.53,5.59-17.92,6.53-81.29-4.19-168.31,5.65-248.93.09-7.64-.53-15.86-1.61-21.37-7.39-1.07-1.12-6.61-10.01-6.61-10.63v-32.32h-58.99v544.34h347.44c.83,0,7.68,3.3,8.59,4.34,7.72,8.78-3.29,18.1-12.85,17.26H160.36c-13.62-1.17-21.06-6.69-22.31-20.83V128.3c-1.3-5.73,6.7-20.77,12.29-20.77h66.9v-22.98h-88.48c-.42,0-6.37,3.52-7.21,4.29-4.15,3.78-5.67,9.89-6.27,15.28-3.58,32.13,3.98,72.05-.11,103.3-1.67,12.75-19.95,9.67-20.09-3.08,1.49-32.31-2.42-67.01-.2-99.04,1.48-21.21,12.55-36.51,33.87-40.87l87.57-.19c4.15-6.87,6.79-13.41,14.96-16.66,11.04-4.39,60.04.44,62.21-1.81-1.38-18.66,11.12-36.76,29.01-42.12,2.26-.68,9.15-2.2,11.26-2.41,16.43-1.66,52.62-1.66,69.06,0ZM499.22,156.36v-88.33l-2.16-2.15h-66.18c-1.28,0-7.06-4.88-7.62-6.76-3.62-12.31,5.78-34.18-18.21-36.4-24.62-2.28-53.52,1.3-78.54.73-19.58,5.77-8.43,30.42-15.73,38.87-.71.82-4.52,3.56-5.06,3.56h-66.18l-2.16,2.15v88.33h261.84Z"/>
  <path d="M206.79,198.35c29.43,1.78,64.4-3.58,93.17-.35,10.73,1.2,20.44,8.54,22.33,19.36-1.9,30.37,2.39,63.43.02,93.45-1.14,14.48-9.36,22.16-23.81,23.62-21.21,2.15-64.9,1.9-86.35.07-12.98-1.11-23.6-8.66-25.13-22.31-3.24-28.91,2.32-63.69.13-93.23,1.27-9.29,10.48-19.07,19.64-20.61ZM207.17,312.91c1.41-.47,3.12,1.44,3.6,1.44h89.2l2.16-2.15v-91.92l-2.16-2.15h-90.64l-2.16,2.15v92.64Z"/>
  <path d="M208.26,515.79c18.56-2.71,70.99-2.31,90.24-.36,12.08,1.22,22.31,8.16,23.76,20.81,2.46,21.47,2.11,73,.07,94.86-1.08,11.6-10.97,19.48-22.37,20.76-19.92,2.24-70.61,2.14-90.64,0-11.39-1.22-21.02-10.83-22.3-22.26-3.24-28.91,2.32-63.69.13-93.23,1.93-10.64,10.4-19.01,21.11-20.58ZM207.17,536.96v92.64l2.16,2.15h90.64l2.16-2.15v-91.92l-2.16-2.15h-89.2c-.48,0-2.18,1.9-3.6,1.44Z"/>
  <path d="M205.34,357.77c30.56,2.09,67.76-3.94,97.53-.37,9.03,1.08,18.33,10.32,19.42,19.39-2.75,30.32,3.56,66.73,0,96.29-1.08,9.01-10.34,18.3-19.42,19.39-30.1-2.19-63.97,2.8-93.6.02-11.64-1.09-20.89-9.09-22.25-20.88-3.35-29.27,2.4-64.73.13-94.67,1.77-9.39,8.86-16.74,18.19-19.18ZM302.12,377.54h-92.79l-2.16,2.15v90.48l2.16,2.15h92.79v-94.79Z"/>
  <path d="M352.06,254.33l188.19-.34c13.53,1.56,14.66,17.45,1.48,20.22l-188.57-.05c-12.41-.26-12.07-17.38-1.1-19.83Z"/>
  <path d="M547.72,589.67c-2.22,1.8-4.77,1.7-7.44,1.93-59.76,5.06-126.6-3.93-187.12-.03-14.98-1.74-10.76-20.45,2.91-20.13,58.28,4.05,123.92-5.4,181.33-.06,10.81,1.01,19.79,10.64,10.32,18.29Z"/>
  <path d="M350.61,413.74l191.12-.37c11.72,1.51,12.95,18.54-1.48,20.21h-185.65c-12.48-1.46-14.96-13.88-3.99-19.84Z"/>
  <path d="M244.59,264.07c2.18.59,2.38-.58,3.6-1.41,7.41-5.1,15.38-16.96,23.74-22.26,9.74-3.9,18.28,5.33,13,14.42l-37.5,35.8c-3.84,1.76-9.22.95-12.13-2.2-1.4-1.51-12.16-23.44-12.28-25.17-.94-13.71,20.33-13.57,21.58.82Z"/>
  <path d="M244.59,581.48c2.18.59,2.38-.58,3.6-1.41,5.75-3.96,18.88-20.02,23.74-22.25,9.51-4.37,18.22,5.6,12.99,14.42l-37.5,35.8c-3.82,1.78-9.23.94-12.13-2.2-1.4-1.51-12.16-23.44-12.28-25.17-.94-13.71,20.33-13.57,21.58.82Z"/>
  <path d="M244.59,423.5c2.17.59,2.38-.58,3.6-1.41,7.95-5.48,20.86-26.93,30.96-23.84,7.2,2.2,9.54,10.68,4.92,16.58l-37,34.9c-9.67,7.58-23.71-21.9-24.06-27.04-.94-13.73,20.92-14.72,21.58.82Z"/>
</svg>