<?xml version="1.0" encoding="UTF-8"?>
<svg id="Layer_1" data-name="Layer 1" xmlns="http://www.w3.org/2000/svg" viewBox="0 0 985.8 641.03">
  <path d="M0,496.94c8.7-64.46,86.03-111.19,144.84-121.24,6.67-1.14,36.97-7.58,36.59,1.96l-28.7,148.71,38.22,40.74,35.85-40.76-27.32-152.64c12.84-7.3,70.08,10.8,85.19,17.85,38.31-42.3,85.33-70.18,141.58-81.9,11.67-2.43,40.02-7.8,50.62-6.08,2.49.4,4.68.85,5.58,3.59l-36.6,187.33c.37,5.82,13.7,20.2,18.67,25.85,3.49,3.98,26.17,27.42,29.27,26.88l45.99-50.43-36.45-189.62c.74-4.11,7.41-3.66,10.48-3.78,13.1-.51,34.4,3.92,47.65,6.8,54.54,11.83,100.11,38.69,137.77,79.23,28.89-5.66,56.84-18.64,86.95-16.89l-27.2,153.82,35.88,40.71,35.8-35.53,2.4-5.18-29.63-153.78c64.17.51,142.71,32.71,171.23,93.61,2.86,6.1,11.13,27.87,11.13,33.22v141.62H0v-144.1Z"/>
  <path d="M472.62,1.37c200.01-24.09,214.55,277.8,21.36,280.17-174.23,2.15-190.1-259.84-21.36-280.17Z"/>
  <path d="M176.89,131.91c137.79-15.76,173.16,187.8,39.63,219.39-154.14,36.45-192.15-201.94-39.63-219.39Z"/>
  <path d="M785.62,131.94c151.68-12.96,161.37,214.21,18.95,223.39-146.15,9.42-163.2-211.06-18.95-223.39Z"/>
</svg>