<?xml version="1.0" encoding="UTF-8"?>
<svg id="Layer_1" data-name="Layer 1" xmlns="http://www.w3.org/2000/svg" viewBox="0 0 835 769">
  <path d="M441.51,768.55c-14.48.6-31.47.6-45.94,0-32.2-1.35-89.02-8.33-116.54-25.79-5.62-3.57-9.54-7.71-10.3-14.68-1.93-17.81-1.15-51.55.01-69.95,7.2-114.13,138.14-178.71,233.42-114.67,61.99,41.66,73.15,110.11,67.17,180.61-.5,5.95-1.46,10.84-5.96,15.02-21.31,19.82-93.15,28.28-121.86,29.46Z"/>
  <path d="M1.08,565.67c2.33-44.89,21.01-86.45,56.45-114.91,85.79-68.88,212.89-24.87,239.17,80.41-.18,1.81-7.42,7.25-9.51,9.49-21.27,22.78-37.47,50.19-45.35,80.55-3.39,13.04-4.83,26.21-6.64,39.52-51.42,8.74-107.96,10.22-159.56,1.72-16.51-2.72-35.61-7.32-50.95-13.98-9.91-4.3-21.99-9.75-23.61-21.84-1.95-14.58-.81-45.41,0-60.96Z"/>
  <path d="M835,554.68v75.96c-4.89,10.71-17.18,15.67-27.7,19.75-48.42,18.82-123.11,20.55-174.53,15.22-9.97-1.03-19.83-3.09-29.8-4.16l-1.53-1.47c-1.3-42.38-18.96-82.78-46.56-114.31-3.07-3.51-14.53-12.79-14.57-16.44-.04-4.28,6.98-21.15,9.2-25.88,59.8-127.35,246.82-107.07,281,27.34l4.49,23.99Z"/>
  <path d="M285.71,0c65.73,1.94,105.87,74.67,68.32,130.83-34.18,51.12-111.87,47.61-141.74-5.89S221.14,1.22,283.71,0h2Z"/>
  <path d="M549.37,0c58.13,2.08,98.49,60.16,76.08,115.61-24.84,61.47-109.18,69.96-146.22,15.04C442.18,75.71,481.82.96,547.37,0h2Z"/>
  <path d="M81.32,372.43c-43.87-43.93-37.39-116.98,12.91-152.78,76.45-54.42,178.65,17.51,154.24,108.37-19.69,73.28-113.36,98.27-167.15,44.41Z"/>
  <path d="M679,201.18c78.26-5.5,131.67,79.43,94.25,148.29-37.47,68.95-137.59,69.04-175.46.35-35.53-64.43,8.64-143.54,81.21-148.63Z"/>
  <path d="M416.34,301.11c76.51-1.9,126.95,80.79,90.25,148.3-35.91,66.06-129.95,70.02-171.36,7.24-43.18-65.47,3.08-153.6,81.11-155.54Z"/>
  <path d="M601.3,196.9c.7,2.59-1.54,1.96-3.01,3.42-49.74,49.2-63.87,117.85-21.77,177.77,6.65,9.46,17.34,17.25,22.8,25.16.58.84,1.39.99.98,2.5-19.39,9.18-36.13,23.15-50.96,38.46l-6.95,8.52c10.58-29.1,12.9-57.91,4.48-87.94-13.88-49.53-58.75-89.58-110.36-94.95,16.8-70.84,100.4-106.98,164.79-72.94Z"/>
  <path d="M397.56,269.83c-72.28,12.38-120.7,78.06-110.72,151.29l8.36,32.61c-16.45-19.6-35.85-36.32-58.43-48.49-.46-1.99,5.02-5.02,6.52-6.45,43.98-41.78,54.85-108.08,25.61-161.6-8.63-15.81-20.72-28.97-34.11-40.81,63.46-34.1,144.89,4.73,162.77,73.45Z"/>
</svg>